<svg width="815" height="678" viewBox="0 0 815 678" fill="none" xmlns="http://www.w3.org/2000/svg">
<path fill-rule="evenodd" clip-rule="evenodd" d="M170.796 650C137.954 650 72.2688 649.014 83.2162 662.014C94.1637 675.014 169 687 258 668C347 649 507.807 667.807 537 674C566.193 680.193 703.573 676 699.923 663C696.274 650 606.385 644 495.571 644C384.756 644 203.638 650 170.796 650Z" fill="#CD718E"/>
<path fill-rule="evenodd" clip-rule="evenodd" d="M203 93C203 93 183.13 239.71 180.714 307.009C180.544 311.737 172 310 172 319C172 328 180.073 329.049 180 333C178 441 203 602 203 602C203 602 140 639 124 635C114 623 94 617 94 635C94 653 119 659 124 657C129 655 144 669 167 663C190 657 206 650 215 654C224 658 236 665 251 657C266 649 250 618 243 602C236 586 210 449 210 363C210 277 243 93 243 93H203Z" fill="#E1B2A1"/>
<mask id="mask0" mask-type="alpha" maskUnits="userSpaceOnUse" x="94" y="93" width="164" height="572">
<path fill-rule="evenodd" clip-rule="evenodd" d="M203 93C203 93 183.13 239.71 180.714 307.009C180.544 311.737 172 310 172 319C172 328 180.073 329.049 180 333C178 441 203 602 203 602C203 602 140 639 124 635C114 623 94 617 94 635C94 653 119 659 124 657C129 655 144 669 167 663C190 657 206 650 215 654C224 658 236 665 251 657C266 649 250 618 243 602C236 586 210 449 210 363C210 277 243 93 243 93H203Z" fill="white"/>
</mask>
<g mask="url(#mask0)">
<path fill-rule="evenodd" clip-rule="evenodd" d="M189 79H247C247 79 270 124 242 138C214 152 189 131 189 131V79Z" fill="#CC9B8A"/>
<path fill-rule="evenodd" clip-rule="evenodd" d="M157 222L181 248L200 340L152 370L157 222Z" fill="#CC9B8A"/>
<path fill-rule="evenodd" clip-rule="evenodd" d="M77.9326 626C81.9326 636 104.933 649 123.933 649C131.933 654 151.933 662 172.933 651C193.933 640 211 626 211 626C211 626 230 632 238 626C246 620 243 601 243 601C243 601 256.13 596.15 257 597C269.761 609.469 256.081 622.879 272.933 626C299.933 631 288.933 660 264.933 667C240.933 674 155.933 684 118.933 674C81.9326 664 73.9326 616 77.9326 626Z" fill="#CC9B8A"/>
</g>
<path fill-rule="evenodd" clip-rule="evenodd" d="M187.952 462.478C187.952 462.478 182.249 474.268 183.293 474.778C184.337 475.288 191.657 464.288 191.657 464.288L187.952 462.478Z" fill="#9D796C"/>
<path fill-rule="evenodd" clip-rule="evenodd" d="M190.952 189.754C190.952 189.754 185.249 201.544 186.293 202.054C187.337 202.564 194.657 191.564 194.657 191.564L190.952 189.754Z" fill="#9D796C"/>
<path fill-rule="evenodd" clip-rule="evenodd" d="M200.761 338.571C200.761 338.571 206.54 350.324 207.585 349.815C208.629 349.307 204.468 336.766 204.468 336.766L200.761 338.571Z" fill="#9D796C"/>
<path fill-rule="evenodd" clip-rule="evenodd" d="M204.525 494.557C204.525 494.557 203.37 510.74 204.525 510.862C205.681 510.985 208.626 494.99 208.626 494.99L204.525 494.557Z" fill="#9D796C"/>
<path fill-rule="evenodd" clip-rule="evenodd" d="M215.144 229.255C215.144 229.255 223.961 242.875 224.957 242.278C225.953 241.68 218.68 227.134 218.68 227.134L215.144 229.255Z" fill="#9D796C"/>
<path fill-rule="evenodd" clip-rule="evenodd" d="M184.525 355.557C184.525 355.557 183.37 371.74 184.525 371.862C185.681 371.985 188.626 355.99 188.626 355.99L184.525 355.557Z" fill="#9D796C"/>
<path fill-rule="evenodd" clip-rule="evenodd" d="M230.925 576.624C230.925 576.624 238.77 590.826 239.805 590.299C240.841 589.773 234.599 574.755 234.599 574.755L230.925 576.624Z" fill="#9D796C"/>
<path fill-rule="evenodd" clip-rule="evenodd" d="M230.925 135.881C230.925 135.881 238.77 150.083 239.805 149.556C240.841 149.029 234.599 134.012 234.599 134.012L230.925 135.881Z" fill="#9D796C"/>
<path fill-rule="evenodd" clip-rule="evenodd" d="M210.925 437.624C210.925 437.624 218.77 451.826 219.805 451.299C220.841 450.773 214.599 435.755 214.599 435.755L210.925 437.624Z" fill="#9D796C"/>
<path fill-rule="evenodd" clip-rule="evenodd" d="M216.892 165.305C216.892 165.305 224.738 179.506 225.773 178.98C226.809 178.453 220.567 163.435 220.567 163.435L216.892 165.305Z" fill="#9D796C"/>
<path fill-rule="evenodd" clip-rule="evenodd" d="M207.267 570.763C207.267 570.763 206.107 581.247 207.267 581.309C208.428 581.37 211.385 570.982 211.385 570.982L207.267 570.763Z" fill="#9D796C"/>
<path fill-rule="evenodd" clip-rule="evenodd" d="M199.267 223.763C199.267 223.763 198.107 234.247 199.267 234.309C200.428 234.37 203.385 223.982 203.385 223.982L199.267 223.763Z" fill="#9D796C"/>
<path fill-rule="evenodd" clip-rule="evenodd" d="M187.267 431.763C187.267 431.763 186.107 442.247 187.267 442.309C188.428 442.37 191.385 431.982 191.385 431.982L187.267 431.763Z" fill="#9D796C"/>
<path fill-rule="evenodd" clip-rule="evenodd" d="M195.904 154.761C195.904 154.761 190.559 160.235 191.195 160.788C191.831 161.341 198.16 156.724 198.16 156.724L195.904 154.761Z" fill="#9D796C"/>
<path fill-rule="evenodd" clip-rule="evenodd" d="M203.204 549.773C203.204 549.773 197.474 556.293 198.227 556.882C198.98 557.471 205.876 551.864 205.876 551.864L203.204 549.773Z" fill="#9D796C"/>
<path fill-rule="evenodd" clip-rule="evenodd" d="M205.768 277.978C205.768 277.978 206.627 286.616 207.572 286.467C208.516 286.318 209.119 277.45 209.119 277.45L205.768 277.978Z" fill="#9D796C"/>
<path fill-rule="evenodd" clip-rule="evenodd" d="M183.204 410.773C183.204 410.773 177.474 417.293 178.227 417.882C178.98 418.471 185.876 412.864 185.876 412.864L183.204 410.773Z" fill="#9D796C"/>
<path fill-rule="evenodd" clip-rule="evenodd" d="M197.077 127.826C197.077 127.826 188.551 136.132 189.872 137.058C191.193 137.985 201.764 131.115 201.764 131.115L197.077 127.826Z" fill="#9D796C"/>
<path fill-rule="evenodd" clip-rule="evenodd" d="M192.636 526.472C192.636 526.472 187.507 536.084 188.182 536.475C188.857 536.865 195.032 527.858 195.032 527.858L192.636 526.472Z" fill="#9D796C"/>
<path fill-rule="evenodd" clip-rule="evenodd" d="M195.636 251.472C195.636 251.472 190.507 261.084 191.182 261.475C191.857 261.865 198.032 252.858 198.032 252.858L195.636 251.472Z" fill="#9D796C"/>
<path fill-rule="evenodd" clip-rule="evenodd" d="M209.349 471.654C209.349 471.654 214.111 481.453 214.824 481.136C215.537 480.819 211.879 470.529 211.879 470.529L209.349 471.654Z" fill="#9D796C"/>
<path fill-rule="evenodd" clip-rule="evenodd" d="M215.317 199.334C215.317 199.334 220.079 209.133 220.792 208.816C221.505 208.499 217.847 198.209 217.847 198.209L215.317 199.334Z" fill="#9D796C"/>
<path fill-rule="evenodd" clip-rule="evenodd" d="M203.367 593.103C203.367 593.103 200.692 599.712 201.367 600.103C202.042 600.493 205.367 595.103 205.367 595.103L203.367 593.103Z" fill="#9D796C"/>
<path fill-rule="evenodd" clip-rule="evenodd" d="M201.367 448.103C201.367 448.103 198.692 454.712 199.367 455.103C200.042 455.493 203.367 450.103 203.367 450.103L201.367 448.103Z" fill="#9D796C"/>
<path fill-rule="evenodd" clip-rule="evenodd" d="M207.335 175.783C207.335 175.783 204.659 182.393 205.335 182.783C206.01 183.174 209.335 177.783 209.335 177.783L207.335 175.783Z" fill="#9D796C"/>
<path fill-rule="evenodd" clip-rule="evenodd" d="M229.122 558.339C229.122 558.339 235.582 561.357 236.007 560.703C236.433 560.049 231.223 556.446 231.223 556.446L229.122 558.339Z" fill="#9D796C"/>
<path fill-rule="evenodd" clip-rule="evenodd" d="M208.122 315.275C208.122 315.275 214.582 318.293 215.007 317.639C215.433 316.985 210.223 313.382 210.223 313.382L208.122 315.275Z" fill="#9D796C"/>
<path fill-rule="evenodd" clip-rule="evenodd" d="M209.122 419.339C209.122 419.339 215.582 422.357 216.007 421.703C216.433 421.049 211.223 417.446 211.223 417.446L209.122 419.339Z" fill="#9D796C"/>
<path fill-rule="evenodd" clip-rule="evenodd" d="M215.089 147.019C215.089 147.019 221.55 150.037 221.975 149.383C222.4 148.729 217.191 145.127 217.191 145.127L215.089 147.019Z" fill="#9D796C"/>
<path fill-rule="evenodd" clip-rule="evenodd" d="M216.908 527.797C216.908 527.797 223.947 540.366 224.636 540C225.325 539.634 219.354 526.499 219.354 526.499L216.908 527.797Z" fill="#9D796C"/>
<path fill-rule="evenodd" clip-rule="evenodd" d="M196.908 388.797C196.908 388.797 203.947 401.366 204.636 401C205.325 400.634 199.354 387.499 199.354 387.499L196.908 388.797Z" fill="#9D796C"/>
<path fill-rule="evenodd" clip-rule="evenodd" d="M221.636 504.541C221.636 504.541 224.611 511.919 225.16 511.559C225.71 511.2 223.587 503.265 223.587 503.265L221.636 504.541Z" fill="#9D796C"/>
<path fill-rule="evenodd" clip-rule="evenodd" d="M201.636 365.541C201.636 365.541 204.611 372.919 205.16 372.559C205.71 372.2 203.587 364.265 203.587 364.265L201.636 365.541Z" fill="#9D796C"/>
<rect x="0.556152" y="167.994" width="163.503" height="198.114" transform="rotate(-12 0.556152 167.994)" fill="white"/>
<rect x="31.3023" y="204.472" width="18" height="18" transform="rotate(-12 31.3023 204.472)" stroke="#CD718E" stroke-width="4"/>
<rect x="66.0999" y="195.031" width="83" height="22" transform="rotate(-12 66.0999 195.031)" fill="#EFE2E2"/>
<rect x="39.2029" y="241.641" width="18" height="18" transform="rotate(-12 39.2029 241.641)" stroke="#CD718E" stroke-width="4"/>
<rect x="74.0005" y="232.2" width="83" height="22" transform="rotate(-12 74.0005 232.2)" fill="#EFE2E2"/>
<rect x="47.1036" y="278.811" width="18" height="18" transform="rotate(-12 47.1036 278.811)" stroke="#CD718E" stroke-width="4"/>
<rect x="81.9011" y="269.37" width="83" height="22" transform="rotate(-12 81.9011 269.37)" fill="#EFE2E2"/>
<rect x="55.0042" y="315.981" width="18" height="18" transform="rotate(-12 55.0042 315.981)" stroke="#CD718E" stroke-width="4"/>
<rect x="89.8018" y="306.54" width="83" height="22" transform="rotate(-12 89.8018 306.54)" fill="#EFE2E2"/>
<path fill-rule="evenodd" clip-rule="evenodd" d="M589 107C589 107 598.411 231.267 602.89 298.448C603.136 302.143 608 300 611 309C614 318 604.722 320.41 604.977 324C612.626 431.747 589 599 589 599C589 599 653.231 643.832 669 639C682 639 693 628.622 697 635C701 641.378 694 661.565 674.702 654.918C666 661.564 655.357 667.948 632.075 663.16C608.792 658.372 590.778 654.534 582 659C573.222 663.466 563.274 668.769 547.876 661.565C532.478 654.361 537 632.948 552.986 606.221C568.972 579.494 572.501 450.186 568 364.304C563.499 278.422 537 112 537 112L589 107Z" fill="#E1B2A1"/>
<mask id="mask1" mask-type="alpha" maskUnits="userSpaceOnUse" x="537" y="107" width="162" height="559">
<path fill-rule="evenodd" clip-rule="evenodd" d="M589 107C589 107 598.411 231.267 602.89 298.448C603.136 302.143 608 300 611 309C614 318 604.722 320.41 604.977 324C612.626 431.747 589 599 589 599C589 599 653.231 643.832 669 639C682 639 693 628.622 697 635C701 641.378 694 661.565 674.702 654.918C666 661.564 655.357 667.948 632.075 663.16C608.792 658.372 590.778 654.534 582 659C573.222 663.466 563.274 668.769 547.876 661.565C532.478 654.361 537 632.948 552.986 606.221C568.972 579.494 572.501 450.186 568 364.304C563.499 278.422 537 112 537 112L589 107Z" fill="white"/>
</mask>
<g mask="url(#mask1)">
<path fill-rule="evenodd" clip-rule="evenodd" d="M530 90H588C588 90 620 109 595 137C570 165 530 154 530 154V90Z" fill="#CC9B8A"/>
<path fill-rule="evenodd" clip-rule="evenodd" d="M707.77 626C703.77 636 680.77 649 661.77 649C653.77 654 633.77 662 612.77 651C591.77 640 574.702 626 574.702 626C574.702 626 555.702 632 547.702 626C539.702 620 542.702 601 542.702 601C542.702 601 529.572 596.15 528.702 597C515.941 609.469 529.621 622.879 512.77 626C485.77 631 496.77 660 520.77 667C544.77 674 629.77 684 666.77 674C703.77 664 711.77 616 707.77 626Z" fill="#CC9B8A"/>
</g>
<path fill-rule="evenodd" clip-rule="evenodd" d="M599.894 460.594C599.894 460.594 606.406 471.958 605.4 472.539C604.395 473.121 596.325 462.658 596.325 462.658L599.894 460.594Z" fill="#9D796C"/>
<path fill-rule="evenodd" clip-rule="evenodd" d="M595.766 193.134C595.766 193.134 602.278 204.498 601.272 205.079C600.266 205.661 592.197 195.198 592.197 195.198L595.766 193.134Z" fill="#9D796C"/>
<path fill-rule="evenodd" clip-rule="evenodd" d="M572.576 341.29C572.576 341.29 567.631 353.418 566.553 352.983C565.476 352.549 568.753 339.748 568.753 339.748L572.576 341.29Z" fill="#9D796C"/>
<path fill-rule="evenodd" clip-rule="evenodd" d="M585.6 493.751C585.6 493.751 587.881 509.814 586.737 510.017C585.593 510.219 581.54 494.469 581.54 494.469L585.6 493.751Z" fill="#9D796C"/>
<path fill-rule="evenodd" clip-rule="evenodd" d="M560.567 244.108C560.567 244.108 552.721 258.31 551.686 257.783C550.65 257.256 556.892 242.238 556.892 242.238L560.567 244.108Z" fill="#9D796C"/>
<path fill-rule="evenodd" clip-rule="evenodd" d="M602.209 362.487C602.209 362.487 611.535 375.764 610.607 376.464C609.68 377.164 598.918 364.971 598.918 364.971L602.209 362.487Z" fill="#9D796C"/>
<path fill-rule="evenodd" clip-rule="evenodd" d="M564.99 577.46C564.99 577.46 558.154 592.175 557.084 591.721C556.015 591.268 561.193 575.851 561.193 575.851L564.99 577.46Z" fill="#9D796C"/>
<path fill-rule="evenodd" clip-rule="evenodd" d="M600 258C600 258 609.084 269.583 608 270C606.916 270.417 595.344 259.505 595.344 259.505L600 258Z" fill="#9D796C"/>
<path fill-rule="evenodd" clip-rule="evenodd" d="M575.245 437.404C575.245 437.404 568.409 452.118 567.339 451.665C566.27 451.212 571.448 435.795 571.448 435.795L575.245 437.404Z" fill="#9D796C"/>
<path fill-rule="evenodd" clip-rule="evenodd" d="M550.295 166.164C550.295 166.164 543.46 180.878 542.39 180.425C541.321 179.972 546.499 164.555 546.499 164.555L550.295 166.164Z" fill="#9D796C"/>
<path fill-rule="evenodd" clip-rule="evenodd" d="M588.18 569.963C588.18 569.963 590.069 580.341 588.916 580.483C587.763 580.625 584.088 570.468 584.088 570.468L588.18 569.963Z" fill="#9D796C"/>
<path fill-rule="evenodd" clip-rule="evenodd" d="M571.955 223.25C571.955 223.25 573.844 233.628 572.691 233.77C571.538 233.913 567.863 223.755 567.863 223.755L571.955 223.25Z" fill="#9D796C"/>
<path fill-rule="evenodd" clip-rule="evenodd" d="M598.435 429.907C598.435 429.907 600.324 440.284 599.171 440.427C598.018 440.569 594.343 430.412 594.343 430.412L598.435 429.907Z" fill="#9D796C"/>
<path fill-rule="evenodd" clip-rule="evenodd" d="M581.021 169.88C581.021 169.88 586.735 174.968 586.14 175.564C585.544 176.16 578.908 171.996 578.908 171.996L581.021 169.88Z" fill="#9D796C"/>
<path fill-rule="evenodd" clip-rule="evenodd" d="M590.77 548.741C590.77 548.741 596.941 554.845 596.231 555.485C595.521 556.125 588.25 551.013 588.25 551.013L590.77 548.741Z" fill="#9D796C"/>
<path fill-rule="evenodd" clip-rule="evenodd" d="M569.253 277.787C569.253 277.787 568.997 286.463 568.045 286.38C567.093 286.298 565.873 277.493 565.873 277.493L569.253 277.787Z" fill="#9D796C"/>
<path fill-rule="evenodd" clip-rule="evenodd" d="M606.157 408.884C606.157 408.884 612.329 414.987 611.619 415.628C610.909 416.268 603.637 411.155 603.637 411.155L606.157 408.884Z" fill="#9D796C"/>
<path fill-rule="evenodd" clip-rule="evenodd" d="M584.464 323.908C584.464 323.908 590.635 330.012 589.925 330.652C589.215 331.292 581.944 326.18 581.944 326.18L584.464 323.908Z" fill="#9D796C"/>
<path fill-rule="evenodd" clip-rule="evenodd" d="M594.508 283.955C594.508 283.955 595.319 293.991 594.453 294.395C593.587 294.8 591.346 284.034 591.346 284.034L594.508 283.955Z" fill="#9D796C"/>
<path fill-rule="evenodd" clip-rule="evenodd" d="M589.755 235.044C589.755 235.044 595.926 241.148 595.216 241.788C594.506 242.429 587.235 237.316 587.235 237.316L589.755 235.044Z" fill="#9D796C"/>
<path fill-rule="evenodd" clip-rule="evenodd" d="M591.965 150.623C591.965 150.623 601.049 158.314 599.796 159.33C598.543 160.347 587.518 154.231 587.518 154.231L591.965 150.623Z" fill="#9D796C"/>
<path fill-rule="evenodd" clip-rule="evenodd" d="M597.687 524.759C597.687 524.759 603.474 533.99 602.827 534.427C602.181 534.863 595.392 526.309 595.392 526.309L597.687 524.759Z" fill="#9D796C"/>
<path fill-rule="evenodd" clip-rule="evenodd" d="M607.329 315.717C607.329 315.717 613.115 324.948 612.469 325.384C611.823 325.821 605.034 317.266 605.034 317.266L607.329 315.717Z" fill="#9D796C"/>
<path fill-rule="evenodd" clip-rule="evenodd" d="M579.19 471.24C579.19 471.24 575.123 481.348 574.39 481.081C573.657 480.815 576.587 470.295 576.587 470.295L579.19 471.24Z" fill="#9D796C"/>
<path fill-rule="evenodd" clip-rule="evenodd" d="M554.241 200C554.241 200 550.174 210.108 549.441 209.841C548.707 209.575 551.638 199.055 551.638 199.055L554.241 200Z" fill="#9D796C"/>
<path fill-rule="evenodd" clip-rule="evenodd" d="M580.63 593.976C580.63 593.976 583.759 600.383 583.113 600.82C582.466 601.256 578.774 596.111 578.774 596.111L580.63 593.976Z" fill="#9D796C"/>
<path fill-rule="evenodd" clip-rule="evenodd" d="M585.51 447.19C585.51 447.19 588.64 453.597 587.993 454.033C587.347 454.47 583.654 449.325 583.654 449.325L585.51 447.19Z" fill="#9D796C"/>
<path fill-rule="evenodd" clip-rule="evenodd" d="M560.561 175.95C560.561 175.95 563.691 182.357 563.044 182.793C562.398 183.23 558.705 178.085 558.705 178.085L560.561 175.95Z" fill="#9D796C"/>
<path fill-rule="evenodd" clip-rule="evenodd" d="M566.513 559.094C566.513 559.094 560.278 562.554 559.809 561.932C559.339 561.309 564.284 557.352 564.284 557.352L566.513 559.094Z" fill="#9D796C"/>
<path fill-rule="evenodd" clip-rule="evenodd" d="M569.506 315.157C569.506 315.157 563.272 318.618 562.802 317.995C562.332 317.372 567.277 313.416 567.277 313.416L569.506 315.157Z" fill="#9D796C"/>
<path fill-rule="evenodd" clip-rule="evenodd" d="M572.768 415.037C572.768 415.037 566.534 418.498 566.064 417.875C565.594 417.253 570.539 413.296 570.539 413.296L572.768 415.037Z" fill="#9D796C"/>
<path fill-rule="evenodd" clip-rule="evenodd" d="M570.336 148.803C570.336 148.803 566.561 154.852 565.848 154.535C565.135 154.219 567.542 148.36 567.542 148.36L570.336 148.803Z" fill="#9D796C"/>
<path fill-rule="evenodd" clip-rule="evenodd" d="M575.565 527.774C575.565 527.774 569.421 540.803 568.708 540.486C567.995 540.17 573.035 526.65 573.035 526.65L575.565 527.774Z" fill="#9D796C"/>
<path fill-rule="evenodd" clip-rule="evenodd" d="M585.821 387.718C585.821 387.718 579.676 400.747 578.963 400.43C578.25 400.113 583.291 386.593 583.291 386.593L585.821 387.718Z" fill="#9D796C"/>
<path fill-rule="evenodd" clip-rule="evenodd" d="M569.227 504.905C569.227 504.905 566.774 512.471 566.201 512.151C565.628 511.831 567.192 503.768 567.192 503.768L569.227 504.905Z" fill="#9D796C"/>
<path fill-rule="evenodd" clip-rule="evenodd" d="M570.941 369.777C570.941 369.777 568.489 377.344 567.916 377.024C567.342 376.704 568.907 368.641 568.907 368.641L570.941 369.777Z" fill="#9D796C"/>
<path fill-rule="evenodd" clip-rule="evenodd" d="M104.629 -37.4697C85.7529 -17.8003 78.8159 120.996 76.1302 129.48C73.4446 137.964 65.0444 146.39 74.2844 177.162C83.5245 207.934 102.148 229.945 104.629 226.53C107.11 223.115 81.3825 188.083 85.3134 187.46C89.2442 186.837 110.481 232.689 117.983 235.53C125.484 238.372 90.587 182.595 94.5179 181.973C98.4487 181.35 122.087 236.464 127.983 235.53C133.879 234.596 99.3246 174.16 103.051 178.607C106.777 183.053 128.793 225.654 135.983 226.53C143.173 227.406 104.91 171.261 106.661 156.88C108.413 142.5 117.983 143.53 117.983 143.53C117.983 143.53 117.983 143.53 124.854 142.53C120.983 133.53 105.874 132.828 104.629 124.966C103.384 117.105 117.177 -9.13908 147.983 -31.4697C147.983 -31.4697 123.505 -57.1391 104.629 -37.4697Z" fill="#E1B2A1"/>
<path fill-rule="evenodd" clip-rule="evenodd" d="M195 0L182 116C182 116 218.396 127 249.466 130C280.536 133 319.595 130 319.595 130C319.595 130 340.013 70.5 397.714 72.5C455.415 74.5 472.282 136 472.282 136C472.282 136 503.352 145 535.309 145C567.267 145 601 130 601 130L588 0H195Z" fill="white"/>
<mask id="mask2" mask-type="alpha" maskUnits="userSpaceOnUse" x="182" y="0" width="419" height="145">
<path fill-rule="evenodd" clip-rule="evenodd" d="M195 0L182 116C182 116 218.396 127 249.466 130C280.536 133 319.595 130 319.595 130C319.595 130 340.013 70.5 397.714 72.5C455.415 74.5 472.282 136 472.282 136C472.282 136 503.352 145 535.309 145C567.267 145 601 130 601 130L588 0H195Z" fill="white"/>
</mask>
<g mask="url(#mask2)">
<path fill-rule="evenodd" clip-rule="evenodd" d="M194.541 54C189.541 54 176.541 23 184.541 20C192.541 17 194.541 26 194.541 26C194.541 26 202.541 14 208.541 20C214.541 26 199.541 54 194.541 54Z" fill="#FFB7CD"/>
<path fill-rule="evenodd" clip-rule="evenodd" d="M238.541 99C233.541 99 220.541 68 228.541 65C236.541 62 238.541 71 238.541 71C238.541 71 246.541 59 252.541 65C258.541 71 243.541 99 238.541 99Z" fill="#FFB7CD"/>
<path fill-rule="evenodd" clip-rule="evenodd" d="M266.541 36C261.541 36 248.541 5 256.541 2C264.541 -1 266.541 8 266.541 8C266.541 8 274.541 -4 280.541 2C286.541 8 271.541 36 266.541 36Z" fill="#FFB7CD"/>
<path fill-rule="evenodd" clip-rule="evenodd" d="M338.541 63C333.541 63 320.541 32 328.541 29C336.541 26 338.541 35 338.541 35C338.541 35 346.541 23 352.541 29C358.541 35 343.541 63 338.541 63Z" fill="#FFB7CD"/>
<path fill-rule="evenodd" clip-rule="evenodd" d="M486.541 86C481.541 86 468.541 55 476.541 52C484.541 49 486.541 58 486.541 58C486.541 58 494.541 46 500.541 52C506.541 58 491.541 86 486.541 86Z" fill="#FFB7CD"/>
<path fill-rule="evenodd" clip-rule="evenodd" d="M531.541 18C526.541 18 513.541 -13 521.541 -16C529.541 -19 531.541 -10 531.541 -10C531.541 -10 539.541 -22 545.541 -16C551.541 -10 536.541 18 531.541 18Z" fill="#FFB7CD"/>
<path fill-rule="evenodd" clip-rule="evenodd" d="M609.541 62C604.541 62 591.541 31 599.541 28C607.541 25 609.541 34 609.541 34C609.541 34 617.541 22 623.541 28C629.541 34 614.541 62 609.541 62Z" fill="#FFB7CD"/>
<path fill-rule="evenodd" clip-rule="evenodd" d="M418.081 27.1964C414.859 27.1964 406.483 7.22172 411.637 5.28869C416.792 3.35566 418.081 9.15475 418.081 9.15475C418.081 9.15475 423.235 1.42263 427.102 5.28869C430.968 9.15475 421.302 27.1964 418.081 27.1964Z" fill="#FFB7CD"/>
<path fill-rule="evenodd" clip-rule="evenodd" d="M487.081 144.196C483.859 144.196 475.483 124.222 480.637 122.289C485.792 120.356 487.081 126.155 487.081 126.155C487.081 126.155 492.235 118.423 496.102 122.289C499.968 126.155 490.302 144.196 487.081 144.196Z" fill="#FFB7CD"/>
<path fill-rule="evenodd" clip-rule="evenodd" d="M305.081 132.196C301.859 132.196 293.483 112.222 298.637 110.289C303.792 108.356 305.081 114.155 305.081 114.155C305.081 114.155 310.235 106.423 314.102 110.289C317.968 114.155 308.302 132.196 305.081 132.196Z" fill="#FFB7CD"/>
<path fill-rule="evenodd" clip-rule="evenodd" d="M555.081 120.196C551.859 120.196 543.483 100.222 548.637 98.2887C553.792 96.3557 555.081 102.155 555.081 102.155C555.081 102.155 560.235 94.4226 564.102 98.2887C567.968 102.155 558.302 120.196 555.081 120.196Z" fill="#FFB7CD"/>
<path fill-rule="evenodd" clip-rule="evenodd" d="M384.5 236.443C440.557 236.443 501 213.443 501 143.443C501 94.9691 480.639 61.5291 447 45.4429C432.061 38.2993 428.5 58.4429 400.5 58.4429C365.5 58.4429 365.905 37.7429 356 41.4429C318.231 55.5508 300 92.939 300 138.443C300 195.88 328.443 236.443 384.5 236.443Z" fill="black" fill-opacity="0.1"/>
</g>
<path fill-rule="evenodd" clip-rule="evenodd" d="M755.909 97.1758C758.447 98.201 761.34 96.9621 762.372 94.4085C762.429 94.2668 762.48 94.1241 762.523 93.9806L798.468 108.503C800.772 109.434 801.886 112.057 800.955 114.361L778.853 169.065C777.922 171.37 775.299 172.483 772.995 171.552L737.05 157.029C737.118 156.896 737.181 156.758 737.238 156.616C738.27 154.063 737.049 151.162 734.512 150.136C731.974 149.111 729.081 150.35 728.049 152.904C727.992 153.045 727.942 153.188 727.898 153.332L612.592 106.745C610.288 105.814 609.174 103.191 610.105 100.887L632.207 46.1829C633.138 43.8786 635.761 42.7653 638.065 43.6963L753.371 90.2831C753.303 90.4165 753.24 90.5542 753.183 90.6959C752.151 93.2494 753.372 96.1505 755.909 97.1758Z" fill="#663244"/>
<path fill-rule="evenodd" clip-rule="evenodd" d="M758.598 112.168C761.015 113.453 764.022 112.523 765.315 110.092C765.387 109.957 765.452 109.82 765.51 109.682L799.74 127.882C801.934 129.049 802.767 131.774 801.6 133.968L773.902 186.062C772.735 188.257 770.01 189.09 767.816 187.923L733.586 169.722C733.668 169.597 733.745 169.467 733.817 169.332C735.109 166.9 734.199 163.887 731.782 162.602C729.366 161.317 726.359 162.247 725.066 164.679C724.994 164.814 724.929 164.95 724.871 165.089L615.066 106.704C612.871 105.537 612.038 102.813 613.205 100.618L640.904 48.5244C642.071 46.33 644.795 45.497 646.99 46.6638L756.795 105.048C756.713 105.174 756.636 105.304 756.564 105.439C755.271 107.871 756.182 110.883 758.598 112.168Z" fill="#7F4156"/>
<path fill-rule="evenodd" clip-rule="evenodd" d="M760.386 142.909C760.334 142.882 760.249 142.848 760.147 142.81C759.784 141.395 759.317 139.84 759.098 138.75C759.002 138.267 758.76 137.951 758.312 137.72L758.259 137.692C758.072 137.597 757.907 137.561 757.829 137.754L756.697 142.045C756.014 141.999 755.463 142.068 755.302 142.361C755.289 142.384 755.279 142.408 755.272 142.433C755.255 142.452 755.24 142.474 755.228 142.496C755.067 142.79 755.316 143.272 755.738 143.794L752.7 147.103C752.58 147.274 752.702 147.388 752.887 147.483C752.887 147.483 752.941 147.51 752.941 147.511C753.389 147.742 753.795 147.759 754.261 147.566C755.317 147.132 756.909 146.637 758.322 146.137C758.411 146.198 758.488 146.247 758.54 146.274L764.353 149.268L757.083 157.539C756.769 158.001 757.029 158.27 757.439 158.481L757.557 158.542C757.822 158.679 758.166 158.619 758.437 158.389L769.908 152.129L775.458 154.989C776.029 155.282 778.509 155.627 778.997 154.739C779.009 154.716 779.02 154.693 779.03 154.67C779.044 154.649 779.058 154.627 779.07 154.605C779.558 153.716 777.874 151.917 777.305 151.624L771.754 148.764L770.692 136.048C770.737 135.702 770.596 135.394 770.33 135.256L770.213 135.196C769.803 134.985 769.427 134.925 769.207 135.437L766.199 145.903L760.386 142.909Z" fill="white"/>
<path fill-rule="evenodd" clip-rule="evenodd" d="M613.942 -97.5486C638.812 -86.3826 697.238 39.7084 702.906 46.5688C708.574 53.4292 719.519 58.0947 722.479 90.0875C725.44 122.08 716.418 149.465 712.838 147.228C709.258 144.991 719.989 102.872 716.111 103.767C712.233 104.662 711.838 148 701 154C695.2 157.211 701.992 143.348 705 128C707.613 114.667 707.324 101.711 705.521 102.127C701.643 103.022 704.828 146 690 153C682.377 156.599 690.601 147.057 694 131C697.212 115.823 694.458 100.085 693 103C690 109 691 145.228 679 150C673.083 152.353 679.461 140.746 682 125C684.61 108.809 683.451 90.3197 682 82C679.138 65.5893 672 57 672 57C672 57 669 56 661 53C668 43 672.79 49.7557 671 42C669.209 34.2443 612.92 -66.5803 575.992 -75.7448C575.992 -75.7448 589.072 -108.715 613.942 -97.5486Z" fill="#E1B2A1"/>
</svg>
